# xmcd
#
# Track frame offsets: 
#        182
#        12007
#        23895
#        35030
#        47450
#        59490
#        71490
#        81837
#        93967
#        108005
#        120525
#        133815
#        145697
#        157925
#        166360
#        178902
#
# Disc length: 2688 seconds
#
# Revision: 0
# Processed by: cddbd v1.4PL0 Copyright (c) Steve Scherf et al.
# Submitted via: ExactAudioCopy v0.90b4
#
DISCID=cc0a7e10
DTITLE=The Platters - The Platters
DYEAR=1900
DGENRE=
TTITLE0=Only You
TTITLE1=The Great Pretender
TTITLE2=The Magicc Touch
TTITLE3=My Prayer
TTITLE4=Heaven on  Earth
TTITLE5=You'll Never Know
TTITLE6=One In A Million
TTITLE7=Smoke Gets In Your Eyes
TTITLE8=Harbor Lights
TTITLE9=I Love You 1000 Times
TTITLE10=I'll Be Home
TTITLE11=With This Ring
TTITLE12=Washed Ashore
TTITLE13=Sweet, Sweet Lovin'
TTITLE14=Twilight Time
TTITLE15=Unchained Melody
EXTD=
EXTT0=
EXTT1=
EXTT2=
EXTT3=
EXTT4=
EXTT5=
EXTT6=
EXTT7=
EXTT8=
EXTT9=
EXTT10=
EXTT11=
EXTT12=
EXTT13=
EXTT14=
EXTT15=
PLAYORDER=
